<svg width="377" height="369" viewBox="0 0 377 369" fill="none" xmlns="http://www.w3.org/2000/svg">
<g clip-path="url(#clip0_117_31)">
<path d="M36.2545 310.85L32.9342 298.071C27.0472 295.637 21.0242 293.528 14.8938 291.755L14.4747 297.694L12.7751 291.151C5.17228 289.03 0 288.097 0 288.097C0 288.097 6.98477 314.023 21.6397 333.843L38.7139 336.77L25.4494 338.636C27.2928 340.801 29.2739 342.85 31.3809 344.772C52.6971 364.081 76.4398 372.94 84.4111 364.559C92.3823 356.178 81.564 333.732 60.2478 314.425C53.6396 308.439 45.3383 303.636 37.0285 299.854L36.2545 310.85Z" fill="#57B070"/>
<path d="M67.8308 296.97L71.7575 284.356C68.0079 279.302 63.9692 274.459 59.6607 269.849L56.1561 274.722L58.1665 268.263C52.7807 262.615 48.8474 259.207 48.8474 259.207C48.8474 259.207 41.0958 284.924 43.1407 309.283L56.2067 320.401L43.8609 315.308C44.2929 318.091 44.9038 320.845 45.6901 323.553C53.7104 350.835 69.3427 370.395 80.6054 367.242C91.8681 364.088 94.497 339.416 86.4767 312.135C83.9905 303.677 79.4281 295.378 74.3176 287.95L67.8308 296.97Z" fill="#F2F2F2"/>
<path d="M263.069 87.4163H260.997V32.0473C260.997 27.8388 260.148 23.6715 258.498 19.7834C256.847 15.8952 254.428 12.3623 251.379 9.38645C248.329 6.41058 244.709 4.04998 240.725 2.43946C236.74 0.828926 232.47 0 228.157 0H107.945C99.235 0 90.882 3.37641 84.7233 9.38645C78.5645 15.3965 75.1046 23.5478 75.1046 32.0473V335.811C75.1046 340.02 75.954 344.187 77.6044 348.075C79.2548 351.963 81.6738 355.496 84.7233 358.472C87.7727 361.448 91.393 363.809 95.3774 365.419C99.3617 367.03 103.632 367.859 107.945 367.859H228.157C236.867 367.858 245.22 364.482 251.379 358.472C257.537 352.462 260.997 344.311 260.997 335.811V126.829H263.068L263.069 87.4163Z" fill="#2F2E41"/>
<path d="M229.482 8.33447H213.792C214.514 10.061 214.789 11.9343 214.594 13.7892C214.399 15.6441 213.74 17.4238 212.674 18.9713C211.608 20.5189 210.168 21.7869 208.482 22.6636C206.795 23.5404 204.914 23.9989 203.003 23.9988H134.135C132.224 23.9987 130.343 23.5401 128.656 22.6633C126.97 21.7865 125.531 20.5185 124.465 18.9709C123.399 17.4234 122.74 15.6438 122.545 13.789C122.35 11.9341 122.625 10.061 123.347 8.33447H108.691C102.186 8.33447 95.9485 10.8559 91.3493 15.3442C86.75 19.8324 84.1661 25.9198 84.1661 32.2671V335.59C84.1661 341.937 86.75 348.025 91.3493 352.513C95.9485 357.001 102.186 359.523 108.691 359.523H229.482C235.987 359.523 242.225 357.001 246.824 352.513C251.423 348.025 254.007 341.937 254.007 335.59V32.2666C254.007 25.9194 251.423 19.8321 246.824 15.344C242.225 10.8559 235.987 8.33447 229.482 8.33447Z" fill="white"/>
<path d="M153.695 129.163C153.694 127.043 154.266 124.96 155.353 123.124C156.439 121.288 158.003 119.764 159.885 118.704C158.003 117.644 155.869 117.086 153.697 117.086C151.524 117.085 149.39 117.643 147.509 118.703C145.627 119.763 144.065 121.288 142.979 123.123C141.892 124.959 141.32 127.042 141.32 129.162C141.32 131.282 141.892 133.365 142.979 135.201C144.065 137.037 145.627 138.561 147.509 139.621C149.39 140.681 151.524 141.239 153.697 141.239C155.869 141.238 158.003 140.68 159.885 139.62C158.003 138.561 156.44 137.037 155.353 135.201C154.266 133.365 153.694 131.283 153.695 129.163Z" fill="#AEF2CC"/>
<path d="M169.252 129.163C169.251 127.043 169.823 124.96 170.91 123.124C171.997 121.288 173.56 119.764 175.442 118.704C173.561 117.644 171.427 117.086 169.254 117.086C167.082 117.085 164.947 117.643 163.066 118.703C161.185 119.763 159.622 121.288 158.536 123.123C157.449 124.959 156.878 127.042 156.878 129.162C156.878 131.282 157.449 133.365 158.536 135.201C159.622 137.037 161.185 138.561 163.066 139.621C164.947 140.681 167.082 141.239 169.254 141.239C171.427 141.238 173.561 140.68 175.442 139.62C173.56 138.561 171.997 137.037 170.91 135.201C169.824 133.365 169.252 131.283 169.252 129.163Z" fill="#CCCCCC"/>
<path d="M184.456 141.239C191.291 141.239 196.831 135.832 196.831 129.162C196.831 122.493 191.291 117.086 184.456 117.086C177.621 117.086 172.081 122.493 172.081 129.162C172.081 135.832 177.621 141.239 184.456 141.239Z" fill="#A4D932"/>
<path d="M205.138 166.882H133.013C132.326 166.881 131.668 166.615 131.182 166.141C130.697 165.667 130.423 165.025 130.423 164.355V93.9702C130.423 93.3002 130.697 92.6578 131.182 92.1839C131.668 91.7101 132.326 91.4436 133.013 91.4428H205.138C205.825 91.4436 206.483 91.7101 206.968 92.1839C207.454 92.6578 207.727 93.3002 207.728 93.9702V164.355C207.727 165.025 207.454 165.667 206.968 166.141C206.483 166.615 205.825 166.881 205.138 166.882ZM133.013 92.4544C132.601 92.4548 132.206 92.6146 131.914 92.8989C131.623 93.1832 131.459 93.5687 131.459 93.9707V164.355C131.459 164.757 131.623 165.143 131.914 165.427C132.206 165.711 132.601 165.871 133.013 165.871H205.138C205.55 165.871 205.945 165.711 206.236 165.427C206.528 165.143 206.691 164.757 206.692 164.355V93.9707C206.691 93.5687 206.528 93.1832 206.236 92.8989C205.945 92.6146 205.55 92.4548 205.138 92.4544H133.013Z" fill="#CCCCCC"/>
<path d="M221.242 220.835H110.624V221.846H221.242V220.835Z" fill="#CCCCCC"/>
<path d="M114.117 214.522C116.047 214.522 117.611 212.996 117.611 211.113C117.611 209.231 116.047 207.704 114.117 207.704C112.188 207.704 110.624 209.231 110.624 211.113C110.624 212.996 112.188 214.522 114.117 214.522Z" fill="#A4D932"/>
<path d="M221.242 254.924H110.624V255.935H221.242V254.924Z" fill="#CCCCCC"/>
<path d="M114.117 248.612C116.047 248.612 117.611 247.085 117.611 245.203C117.611 243.32 116.047 241.794 114.117 241.794C112.188 241.794 110.624 243.32 110.624 245.203C110.624 247.085 112.188 248.612 114.117 248.612Z" fill="#A4D932"/>
<path d="M219.218 293.742H184.26C183.656 293.742 183.077 293.507 182.65 293.091C182.223 292.674 181.983 292.109 181.982 291.52V279.563C181.983 278.973 182.223 278.408 182.65 277.992C183.077 277.575 183.656 277.341 184.26 277.34H219.218C219.822 277.341 220.401 277.575 220.828 277.992C221.255 278.408 221.495 278.973 221.496 279.563V291.52C221.495 292.109 221.255 292.674 220.828 293.091C220.401 293.507 219.822 293.742 219.218 293.742Z" fill="#A4D932"/>
<path d="M125.512 214.522C127.442 214.522 129.006 212.996 129.006 211.113C129.006 209.231 127.442 207.704 125.512 207.704C123.583 207.704 122.019 209.231 122.019 211.113C122.019 212.996 123.583 214.522 125.512 214.522Z" fill="#A4D932"/>
<path d="M136.908 214.522C138.837 214.522 140.401 212.996 140.401 211.113C140.401 209.231 138.837 207.704 136.908 207.704C134.978 207.704 133.414 209.231 133.414 211.113C133.414 212.996 134.978 214.522 136.908 214.522Z" fill="#A4D932"/>
<path d="M125.512 248.612C127.442 248.612 129.006 247.085 129.006 245.203C129.006 243.32 127.442 241.794 125.512 241.794C123.583 241.794 122.019 243.32 122.019 245.203C122.019 247.085 123.583 248.612 125.512 248.612Z" fill="#A4D932"/>
<path d="M136.908 248.612C138.837 248.612 140.401 247.085 140.401 245.203C140.401 243.32 138.837 241.794 136.908 241.794C134.978 241.794 133.414 243.32 133.414 245.203C133.414 247.085 134.978 248.612 136.908 248.612Z" fill="#A4D932"/>
<path d="M375.592 369H12.1879C11.4099 369 10.7798 368.73 10.7798 368.398C10.7798 368.067 11.4099 367.796 12.1879 367.796H375.592C376.369 367.796 377 368.066 377 368.398C377 368.731 376.369 369 375.592 369Z" fill="#3F3D56"/>
<path d="M285.807 241.757C286.056 241.868 286.294 241.998 286.521 242.146L309.223 232.691L310.033 226.855L319.104 226.801L318.568 240.185L288.605 247.918C288.542 248.121 288.466 248.321 288.378 248.515C287.945 249.417 287.248 250.174 286.376 250.691C285.503 251.208 284.493 251.462 283.473 251.421C282.453 251.379 281.469 251.045 280.643 250.459C279.817 249.874 279.187 249.063 278.831 248.129C278.476 247.195 278.412 246.18 278.646 245.21C278.88 244.24 279.403 243.36 280.148 242.679C280.893 241.998 281.828 241.548 282.835 241.384C283.842 241.22 284.876 241.35 285.807 241.757Z" fill="#FFB8B8"/>
<path d="M322.403 363.045H316.198L313.246 339.688L322.404 339.689L322.403 363.045Z" fill="#FFB8B8"/>
<path d="M311.766 361.315H323.733V368.668H304.231C304.231 366.718 305.025 364.848 306.438 363.469C307.851 362.09 309.767 361.315 311.766 361.315Z" fill="#2F2E41"/>
<path d="M346.536 361.334L340.361 361.928L335.076 338.966L344.19 338.09L346.536 361.334Z" fill="#FFB8B8"/>
<path d="M335.776 360.63L347.686 359.485L348.424 366.803L329.016 368.668C328.919 367.707 329.017 366.737 329.304 365.813C329.592 364.889 330.063 364.029 330.69 363.283C331.318 362.536 332.09 361.918 332.963 361.463C333.836 361.008 334.792 360.725 335.776 360.63Z" fill="#2F2E41"/>
<path d="M324.131 202.082C330.996 202.082 336.562 196.651 336.562 189.951C336.562 183.251 330.996 177.819 324.131 177.819C317.265 177.819 311.699 183.251 311.699 189.951C311.699 196.651 317.265 202.082 324.131 202.082Z" fill="#FFB8B8"/>
<path d="M314.811 358.322C314.278 358.323 313.761 358.141 313.353 357.807C312.944 357.473 312.669 357.008 312.577 356.496C309.365 339.097 298.866 282.207 298.615 280.631C298.61 280.595 298.607 280.558 298.607 280.521V276.28C298.607 276.125 298.656 275.974 298.749 275.849L300.136 273.953C300.202 273.862 300.288 273.787 300.388 273.733C300.489 273.68 300.6 273.649 300.714 273.645C308.621 273.283 334.517 272.223 335.768 273.748C337.024 275.281 336.58 279.925 336.479 280.841L336.484 280.936L348.117 353.541C348.208 354.12 348.062 354.711 347.71 355.185C347.359 355.66 346.829 355.98 346.237 356.077L338.971 357.245C338.43 357.33 337.875 357.223 337.408 356.942C336.942 356.662 336.593 356.227 336.427 355.718C334.18 348.71 326.644 325.135 324.032 316.013C324.016 315.955 323.979 315.905 323.927 315.872C323.876 315.839 323.814 315.826 323.753 315.834C323.692 315.842 323.637 315.872 323.597 315.918C323.557 315.963 323.535 316.021 323.536 316.081C323.666 324.777 323.982 346.963 324.09 354.626L324.102 355.451C324.107 356.01 323.897 356.55 323.513 356.965C323.13 357.38 322.601 357.639 322.031 357.691L315.024 358.313C314.953 358.319 314.881 358.322 314.811 358.322Z" fill="#100B6D"/>
<path d="M316.241 206.852C314.071 208.11 312.773 210.423 312.028 212.777C310.649 217.134 309.819 221.638 309.556 226.191L308.769 239.824L299.023 275.964C307.47 282.939 312.342 281.354 323.713 275.649C335.084 269.944 336.383 277.551 336.383 277.551L338.657 246.8L341.905 213.197C341.176 212.34 340.351 211.566 339.445 210.888C336.442 208.61 332.948 207.026 329.227 206.256C325.506 205.487 321.655 205.551 317.963 206.445L316.241 206.852Z" fill="#A4D932"/>
<path d="M313.075 249.056C313.338 249.152 313.591 249.269 313.835 249.404L336.282 238.44L336.654 232.5L345.913 231.877L346.41 245.417L316.413 255.098C316.168 256.123 315.609 257.051 314.81 257.759C314.011 258.466 313.011 258.92 311.942 259.059C310.872 259.199 309.785 259.017 308.824 258.538C307.863 258.06 307.074 257.307 306.563 256.38C306.051 255.454 305.84 254.397 305.959 253.351C306.077 252.304 306.52 251.318 307.227 250.523C307.934 249.728 308.872 249.162 309.917 248.9C310.961 248.638 312.063 248.692 313.075 249.056Z" fill="#FFB8B8"/>
<path d="M341.743 213.351C347.266 215.253 348.238 235.861 348.238 235.861C341.741 232.374 333.944 238.08 333.944 238.08C333.944 238.08 332.32 232.691 330.371 225.716C329.782 223.754 329.712 221.679 330.166 219.684C330.62 217.688 331.585 215.837 332.969 214.303C332.969 214.303 336.22 211.448 341.743 213.351Z" fill="#A4D932"/>
<path d="M335.277 193.159C333.728 191.949 331.615 194.147 331.615 194.147L330.376 183.265C330.376 183.265 322.631 184.17 317.675 182.962C312.719 181.755 311.944 187.346 311.944 187.346C311.689 185.088 311.637 182.812 311.789 180.544C312.099 177.824 316.126 175.103 323.251 173.289C330.376 171.475 334.093 179.335 334.093 179.335C339.05 181.753 336.826 194.368 335.277 193.159Z" fill="#2F2E41"/>
</g>
<defs>
<clipPath id="clip0_117_31">
<rect width="377" height="369" fill="white"/>
</clipPath>
</defs>
</svg>
